<?xml version="1.0" encoding="utf-8"?>
<!-- Generator: Adobe Illustrator 24.0.0, SVG Export Plug-In . SVG Version: 6.00 Build 0)  -->
<svg version="1.1" id="Layer_1" xmlns="http://www.w3.org/2000/svg" xmlns:xlink="http://www.w3.org/1999/xlink" x="0px" y="0px"
	 viewBox="0 0 680 400" enable-background="new 0 0 680 400" xml:space="preserve">
<g>
	<path fill="#53C1AF" d="M100.976,260.976H71.058v45.649c0,6.528-1.54,11.478-4.621,14.849c-3.08,3.373-6.967,5.06-11.659,5.06
		c-4.914,0-8.874-1.668-11.88-5.005c-3.008-3.336-4.509-8.231-4.509-14.684V182.55c0-7.187,1.65-12.32,4.949-15.4
		c3.3-3.08,8.542-4.62,15.73-4.62h41.909c12.392,0,21.926,0.953,28.6,2.86c6.6,1.833,12.301,4.877,17.104,9.129
		c4.803,4.254,8.451,9.46,10.945,15.619c2.493,6.161,3.74,13.091,3.74,20.789c0,16.429-5.06,28.875-15.179,37.345
		C136.066,256.742,120.996,260.976,100.976,260.976z M93.057,187.059H71.058v49.279h21.999c7.7,0,14.135-0.806,19.304-2.421
		c5.17-1.611,9.111-4.252,11.825-7.919c2.712-3.666,4.07-8.471,4.07-14.41c0-7.112-2.089-12.906-6.269-17.38
		C117.292,189.444,107.649,187.059,93.057,187.059z"/>
	<path fill="#53C1AF" d="M205.1,283.196v25.079c0,6.089-1.43,10.654-4.29,13.695c-2.86,3.042-6.49,4.565-10.89,4.565
		c-4.328,0-7.884-1.539-10.669-4.62c-2.788-3.08-4.18-7.627-4.18-13.64v-83.597c0-13.492,4.876-20.24,14.63-20.24
		c4.985,0,8.579,1.578,10.78,4.73c2.2,3.154,3.41,7.81,3.63,13.971c3.592-6.161,7.277-10.817,11.055-13.971
		c3.776-3.152,8.817-4.73,15.125-4.73c6.306,0,12.429,1.578,18.369,4.73c5.939,3.154,8.91,7.334,8.91,12.54
		c0,3.668-1.265,6.693-3.795,9.074c-2.53,2.384-5.262,3.576-8.195,3.576c-1.099,0-3.758-0.678-7.975-2.035
		c-4.217-1.356-7.939-2.035-11.164-2.035c-4.4,0-7.994,1.155-10.78,3.464c-2.788,2.311-4.95,5.74-6.49,10.285
		c-1.539,4.548-2.604,9.956-3.19,16.225C205.392,266.532,205.1,274.177,205.1,283.196z"/>
	<path fill="#53C1AF" d="M366.531,265.487c0,8.947-1.394,17.197-4.18,24.75c-2.787,7.553-6.82,14.043-12.099,19.469
		c-5.28,5.428-11.588,9.588-18.92,12.485c-7.334,2.895-15.584,4.344-24.75,4.344c-9.093,0-17.269-1.468-24.529-4.399
		c-7.26-2.932-13.549-7.131-18.864-12.595c-5.318-5.461-9.35-11.916-12.099-19.359c-2.751-7.443-4.125-15.676-4.125-24.695
		c0-9.092,1.392-17.417,4.18-24.97c2.787-7.551,6.783-14.006,11.99-19.359c5.206-5.353,11.512-9.478,18.92-12.375
		c7.406-2.897,15.582-4.346,24.529-4.346c9.092,0,17.342,1.468,24.75,4.401c7.405,2.933,13.75,7.112,19.029,12.538
		c5.28,5.428,9.295,11.881,12.045,19.36C365.156,248.217,366.531,256.467,366.531,265.487z M336.392,265.487
		c0-12.246-2.695-21.779-8.085-28.6c-5.389-6.82-12.633-10.229-21.724-10.229c-5.868,0-11.037,1.523-15.509,4.565
		c-4.474,3.044-7.92,7.535-10.34,13.475c-2.42,5.939-3.63,12.869-3.63,20.789c0,7.847,1.191,14.702,3.575,20.569
		c2.382,5.867,5.792,10.358,10.229,13.475c4.436,3.117,9.661,4.675,15.675,4.675c9.092,0,16.335-3.428,21.724-10.285
		C333.697,287.065,336.392,277.587,336.392,265.487z"/>
	<path fill="#53C1AF" d="M406.635,221.269v3.63c5.646-6.967,11.512-12.081,17.6-15.345c6.086-3.262,12.98-4.895,20.679-4.895
		c9.24,0,17.746,2.384,25.519,7.151c7.773,4.767,13.915,11.732,18.424,20.898c4.51,9.168,6.765,20.02,6.765,32.56
		c0,9.239-1.303,17.729-3.905,25.464c-2.604,7.737-6.178,14.228-10.724,19.469c-4.548,5.244-9.919,9.278-16.115,12.101
		c-6.197,2.822-12.852,4.234-19.965,4.234c-8.579,0-15.784-1.723-21.614-5.169c-5.829-3.446-11.385-8.506-16.665-15.18v45.098
		c0,13.2-4.803,19.799-14.409,19.799c-5.647,0-9.388-1.705-11.219-5.116c-1.834-3.409-2.75-8.378-2.75-14.904V221.488
		c0-5.72,1.245-9.991,3.74-12.814c2.492-2.822,5.902-4.236,10.229-4.236c4.252,0,7.717,1.449,10.395,4.346
		C405.297,211.681,406.635,215.843,406.635,221.269z M465.484,264.936c0-7.919-1.21-14.721-3.63-20.404
		c-2.42-5.682-5.775-10.046-10.065-13.089c-4.29-3.042-9.039-4.565-14.245-4.565c-8.288,0-15.272,3.262-20.955,9.789
		c-5.683,6.528-8.525,16.133-8.525,28.82c0,11.952,2.822,21.249,8.471,27.883c5.646,6.638,12.649,9.956,21.009,9.956
		c4.986,0,9.606-1.448,13.86-4.346c4.252-2.895,7.662-7.241,10.229-13.034C464.2,280.154,465.484,273.151,465.484,264.936z"/>
	<path fill="#53C1AF" d="M587.096,238.868l-54.998,61.488h58.848c4.766,0,8.36,1.119,10.78,3.354c2.42,2.239,3.63,5.116,3.63,8.635
		c0,3.374-1.193,6.124-3.575,8.249c-2.383,2.129-5.995,3.191-10.835,3.191h-81.397c-5.72,0-9.993-1.245-12.815-3.74
		c-2.824-2.493-4.235-5.902-4.235-10.229c0-2.566,0.99-5.151,2.969-7.755c1.98-2.603,6.086-7.386,12.32-14.355
		c6.6-7.331,12.595-13.969,17.985-19.91c5.39-5.939,10.395-11.495,15.014-16.664c4.621-5.171,8.451-9.552,11.495-13.144
		c3.042-3.593,5.481-6.672,7.315-9.239h-44.659c-6.16,0-10.817-0.551-13.969-1.651c-3.154-1.099-4.73-3.995-4.73-8.688
		c0-3.446,1.191-6.197,3.575-8.251c2.382-2.052,5.775-3.079,10.175-3.079h68.968c6.379,0,11.275,0.935,14.685,2.805
		c3.409,1.87,5.115,5.224,5.115,10.064c0,1.614-0.331,3.282-0.99,5.005c-0.66,1.723-1.394,3.134-2.201,4.234
		c-0.807,1.1-1.907,2.439-3.3,4.015C590.873,234.781,589.149,236.667,587.096,238.868z"/>
	<path fill="#53C1AF" d="M641.612,221.488v86.787c0,6.014-1.43,10.56-4.29,13.64c-2.86,3.08-6.49,4.62-10.89,4.62
		c-4.4,0-7.975-1.578-10.725-4.73c-2.75-3.152-4.125-7.662-4.125-13.53v-85.907c0-5.939,1.375-10.411,4.125-13.418
		c2.751-3.007,6.325-4.511,10.725-4.511c4.399,0,8.03,1.504,10.89,4.511C640.182,211.956,641.612,216.137,641.612,221.488z"/>
</g>
<polygon fill="#FEC760" points="489.877,116.615 489.877,40.385 440.56,40.385 440.56,77.333 379.774,28.916 184.8,188.336 
	379.774,74.792 577.042,186.043 "/>
<circle fill="#FEC760" cx="626.359" cy="175.72" r="14.931"/>
</svg>
